<?xml version="1.0" standalone="no"?>
<!DOCTYPE svg PUBLIC "-//W3C//DTD SVG 20010904//EN"
 "http://www.w3.org/TR/2001/REC-SVG-20010904/DTD/svg10.dtd">
<svg version="1.0" xmlns="http://www.w3.org/2000/svg"
 width="78.000000pt" height="114.000000pt" viewBox="0 0 78.000000 114.000000"
 preserveAspectRatio="xMidYMid meet">

<g transform="translate(0.000000,114.000000) scale(0.100000,-0.100000)"
fill="#000000" stroke="none">
<path d="M255 1079 c-11 -7 -26 -20 -32 -30 -7 -9 -32 -24 -55 -34 l-43 -17
26 -14 c41 -21 164 -52 270 -68 106 -16 133 -26 150 -57 14 -26 13 -698 -1
-734 -13 -34 1 -31 46 10 21 19 44 35 51 35 30 0 41 55 53 271 11 192 -1 432
-26 502 -20 57 -57 85 -160 117 -84 26 -249 37 -279 19z m115 -57 c0 -4 -10
-9 -22 -9 -18 -2 -20 0 -8 7 18 12 30 13 30 2z"/>
<path d="M165 125 c37 -31 158 -71 246 -80 67 -7 117 6 135 37 5 8 0 7 -11 -2
-41 -33 -240 -7 -350 46 l-50 24 30 -25z"/>
</g>
</svg>
