<?xml version="1.0" standalone="no"?>
<!DOCTYPE svg PUBLIC "-//W3C//DTD SVG 20010904//EN"
 "http://www.w3.org/TR/2001/REC-SVG-20010904/DTD/svg10.dtd">
<svg version="1.0" xmlns="http://www.w3.org/2000/svg"
 width="76.000000pt" height="75.000000pt" viewBox="0 0 76.000000 75.000000"
 preserveAspectRatio="xMidYMid meet">

<g transform="translate(0.000000,75.000000) scale(0.100000,-0.100000)"
fill="#000000" stroke="none">
<path d="M281 661 c-43 -31 -43 -31 -18 -40 39 -15 98 -29 154 -36 85 -11 84
-9 81 -264 -2 -121 -1 -221 2 -221 3 1 20 14 38 29 33 28 34 32 43 138 10 117
4 278 -13 332 -8 26 -20 38 -62 56 -28 13 -80 26 -116 30 -61 5 -68 4 -109
-24z"/>
<path d="M248 118 c29 -36 183 -70 215 -46 15 11 11 13 -32 10 -50 -4 -153 20
-181 41 -13 10 -13 10 -2 -5z"/>
</g>
</svg>
