<?xml version="1.0" standalone="yes"?><svg xmlns="http://www.w3.org/2000/svg" xmlns:xlink="http://www.w3.org/1999/xlink" version="1.1" x="0px" y="0px" viewBox="0 0 100 125" enable-background="new 0 0 100 100" xml:space="preserve" style="zoom: 1;"><path d="M66.615,32.905C60.89,24.693,54.969,16.202,51.399,6.96C51.176,6.382,50.621,6.001,50.002,6c0,0-0.001,0-0.002,0 c-0.618,0-1.174,0.38-1.398,0.956c-3.549,9.12-9.434,17.571-15.123,25.744C26.033,43.395,19,53.495,19,63.155 C19,80.163,32.906,94,50,94s31-13.837,31-30.845C81,53.534,74.013,43.514,66.615,32.905z M50,91c-15.439,0-28-12.491-28-27.845 c0-8.719,6.771-18.444,13.94-28.741c5.104-7.33,10.359-14.88,14.054-23.04c3.718,8.271,9.017,15.87,14.16,23.247 C71.275,44.832,78,54.477,78,63.155C78,78.509,65.439,91,50,91z"></path><path d="M60.617,49.051c-0.658-0.501-1.6-0.376-2.103,0.282l-18.582,24.33c-0.503,0.658-0.377,1.6,0.281,2.103 c0.272,0.207,0.592,0.308,0.909,0.308c0.452,0,0.898-0.203,1.193-0.59l18.582-24.33C61.401,50.495,61.275,49.554,60.617,49.051z"></path><path d="M49.323,56.283c0-3.813-3.091-6.902-6.903-6.902c-3.815,0-6.904,3.09-6.904,6.902c0,3.813,3.089,6.904,6.904,6.904 C46.232,63.188,49.323,60.097,49.323,56.283z M38.516,56.283c0-2.151,1.752-3.902,3.904-3.902s3.903,1.751,3.903,3.902 c0,2.152-1.751,3.904-3.903,3.904S38.516,58.436,38.516,56.283z"></path><path d="M57.521,63.188c-3.814,0-6.904,3.09-6.904,6.903s3.09,6.904,6.904,6.904c3.813,0,6.903-3.091,6.903-6.904 S61.334,63.188,57.521,63.188z M57.521,73.995c-2.152,0-3.904-1.751-3.904-3.904c0-2.152,1.752-3.903,3.904-3.903 s3.903,1.751,3.903,3.903C61.425,72.244,59.674,73.995,57.521,73.995z"></path></svg>