<?xml version="1.0" encoding="UTF-8" standalone="no"?>
<!DOCTYPE svg PUBLIC "-//W3C//DTD SVG 1.1//EN" "http://www.w3.org/Graphics/SVG/1.1/DTD/svg11.dtd">
<svg xmlns="http://www.w3.org/2000/svg" version="1.1" viewBox="0.00 0.00 75.00 75.00">
<path fill="#ffc100" d="
  M 33.89 23.83
  C 30.23 3.16 58.64 3.81 54.51 23.51
  Q 52.66 32.35 43.25 32.51
  Q 29.79 32.75 16.36 32.79
  A 0.58 0.58 0.0 0 1 15.79 32.12
  C 16.28 29.40 17.85 28.50 20.60 28.50
  Q 32.80 28.50 45.00 28.50
  Q 47.20 28.49 48.98 26.45
  C 53.16 21.62 50.75 10.64 43.12 12.51
  C 38.00 13.77 36.28 19.18 37.88 23.92
  Q 38.08 24.50 37.47 24.50
  L 34.68 24.50
  Q 34.01 24.50 33.89 23.83
  Z"
/>
<path fill="#ffc100" d="
  M 37.68 36.88
  Q 49.31 35.44 58.77 37.04
  C 64.87 38.06 66.76 46.81 64.54 51.51
  C 59.44 62.34 46.63 55.87 47.88 45.29
  Q 47.94 44.75 48.49 44.75
  L 51.00 44.75
  Q 51.64 44.75 51.56 45.39
  Q 50.86 51.42 55.88 52.61
  C 61.84 54.02 63.53 44.95 59.79 42.10
  C 56.62 39.68 45.95 40.74 41.82 40.76
  Q 41.28 40.76 40.87 40.40
  L 37.52 37.40
  Q 37.03 36.96 37.68 36.88
  Z"
/>
<path fill="#ffc100" d="
  M 9.04 41.33
  L 10.50 39.28
  Q 10.87 38.75 11.52 38.75
  C 17.35 38.75 29.44 37.44 34.41 40.03
  C 42.18 44.08 43.66 55.48 38.68 62.09
  C 34.09 68.20 25.74 68.97 20.57 63.13
  Q 14.79 56.59 17.70 47.32
  Q 17.88 46.75 18.48 46.75
  L 21.47 46.75
  Q 22.22 46.75 21.88 47.42
  C 17.59 55.67 25.06 68.23 34.23 61.11
  C 39.52 57.00 39.16 47.41 33.36 44.14
  C 28.50 41.40 15.56 42.76 9.77 42.74
  A 0.90 0.89 -72.4 0 1 9.04 41.33
  Z"
/>
</svg>
