<svg width="75" height="75" xmlns="http://www.w3.org/2000/svg" version="1.1">

 <g>
  <title>Layer 1</title>
  <path id="svg_1" d="m33.89,23.83c-3.66,-20.67 24.75,-20.02 20.62,-0.32q-1.85,8.84 -11.26,9q-13.46,0.24 -26.89,0.28a0.58,0.58 0 0 1 -0.57,-0.67c0.49,-2.72 2.06,-3.62 4.81,-3.62q12.2,0 24.4,0q2.2,-0.01 3.98,-2.05c4.18,-4.83 1.77,-15.81 -5.86,-13.94c-5.12,1.26 -6.84,6.67 -5.24,11.41q0.2,0.58 -0.41,0.58l-2.79,0q-0.67,0 -0.79,-0.67z" fill="#000000"/>
  <path id="svg_2" d="m37.68,36.88q11.63,-1.44 21.09,0.16c6.1,1.02 7.99,9.77 5.77,14.47c-5.1,10.83 -17.91,4.36 -16.66,-6.22q0.06,-0.54 0.61,-0.54l2.51,0q0.64,0 0.56,0.64q-0.7,6.03 4.32,7.22c5.96,1.41 7.65,-7.66 3.91,-10.51c-3.17,-2.42 -13.84,-1.36 -17.97,-1.34q-0.54,0 -0.95,-0.36l-3.35,-3q-0.49,-0.44 0.16,-0.52z" fill="#000000"/>
  <path id="svg_3" d="m9.04,41.33l1.46,-2.05q0.37,-0.53 1.02,-0.53c5.83,0 17.92,-1.31 22.89,1.28c7.77,4.05 9.25,15.45 4.27,22.06c-4.59,6.11 -12.94,6.88 -18.11,1.04q-5.78,-6.54 -2.87,-15.81q0.18,-0.57 0.78,-0.57l2.99,0q0.75,0 0.41,0.67c-4.29,8.25 3.18,20.81 12.35,13.69c5.29,-4.11 4.93,-13.7 -0.87,-16.97c-4.86,-2.74 -17.8,-1.38 -23.59,-1.4a0.9,0.89 -72.4 0 1 -0.73,-1.41z" fill="#000000"/>
 </g>
</svg>