<?xml version="1.0" encoding="UTF-8" standalone="no" ?>
<!DOCTYPE svg PUBLIC "-//W3C//DTD SVG 1.1//EN" "http://www.w3.org/Graphics/SVG/1.1/DTD/svg11.dtd">
<svg xmlns="http://www.w3.org/2000/svg" xmlns:xlink="http://www.w3.org/1999/xlink" version="1.1" width="512" height="512" viewBox="0 0 512 512" xml:space="preserve">
<desc>Created with Fabric.js 5.3.0</desc>
<defs>
</defs>
<g transform="matrix(1 0 0 1 256 256)" id="isTLVp0iRgELu-halDLjb"  >
<g style="" vector-effect="non-scaling-stroke"   >
		<g transform="matrix(0.1 0 0 -0.1 160.0521423085 -58.249999995)" id="urdUCCfNhpknRF9lCKDFp"  >
<path style="stroke: none; stroke-width: 1; stroke-dasharray: none; stroke-linecap: butt; stroke-dashoffset: 0; stroke-linejoin: miter; stroke-miterlimit: 4; fill: rgb(0,0,0); fill-rule: nonzero; opacity: 1;" vector-effect="non-scaling-stroke"  transform=" translate(-4307.5214231346, -3507.2428827904)" d="M 4064 3746 C 4052 3715 4067 3700 4113 3700 C 4177 3700 4268 3673 4323 3638 C 4429 3570 4487 3469 4499 3330 C 4505 3258 4506 3255 4530 3255 C 4555 3255 4555 3256 4555 3345 C 4555 3425 4551 3442 4523 3503 C 4479 3595 4405 3672 4314 3716 C 4254 3746 4228 3753 4156 3757 C 4083 3762 4070 3760 4064 3746 z" stroke-linecap="round" />
</g>
		<g transform="matrix(0.1 0 0 -0.1 154.5000072938 -52.4270554236)" id="arJwQ67aPvnoeq1S8Q8c-"  >
<path style="stroke: none; stroke-width: 1; stroke-dasharray: none; stroke-linecap: butt; stroke-dashoffset: 0; stroke-linejoin: miter; stroke-miterlimit: 4; fill: rgb(0,0,0); fill-rule: nonzero; opacity: 1;" vector-effect="non-scaling-stroke"  transform=" translate(-4252.0000729876, -3449.0134370752)" d="M 4085 3626 C 4052 3601 4077 3576 4141 3569 C 4272 3555 4370 3451 4370 3328 C 4370 3281 4393 3251 4417 3266 C 4432 3276 4435 3289 4433 3339 C 4430 3453 4360 3559 4256 3605 C 4188 3636 4110 3645 4085 3626 z" stroke-linecap="round" />
</g>
		<g transform="matrix(0.1 0 0 -0.1 148.8200663805 -46.6825110016)" id="jfwSW4NEicaCNaVu6MSii"  >
<path style="stroke: none; stroke-width: 1; stroke-dasharray: none; stroke-linecap: butt; stroke-dashoffset: 0; stroke-linejoin: miter; stroke-miterlimit: 4; fill: rgb(0,0,0); fill-rule: nonzero; opacity: 1;" vector-effect="non-scaling-stroke"  transform=" translate(-4195.2006638546, -3391.5679928556)" d="M 4084 3496 C 4073 3468 4087 3453 4129 3446 C 4189 3437 4240 3387 4247 3333 C 4253 3286 4269 3266 4294 3276 C 4305 3280 4310 3295 4310 3326 C 4310 3421 4237 3498 4140 3508 C 4100 3512 4089 3509 4084 3496 z" stroke-linecap="round" />
</g>
		<g transform="matrix(0.1 0 0 -0.1 43.299999995 18.124288284)" id="SpEjH1ME5_4raAn3MZLXt"  >
<path style="stroke: none; stroke-width: 1; stroke-dasharray: none; stroke-linecap: butt; stroke-dashoffset: 0; stroke-linejoin: miter; stroke-miterlimit: 4; fill: rgb(0,0,0); fill-rule: nonzero; opacity: 1;" vector-effect="non-scaling-stroke"  transform=" translate(-3140, -2743.5)" d="M 3020 3350 C 3020 3317 3023 3310 3040 3310 C 3051 3310 3070 3300 3082 3288 L 3103 3267 L 3097 2741 C 3090 2252 3091 2213 3107 2181 C 3131 2136 3167 2110 3218 2103 L 3260 2097 L 3260 2137 C 3260 2173 3257 2178 3232 2183 C 3216 2186 3199 2199 3193 2212 C 3186 2228 3184 2398 3188 2761 C 3192 3243 3192 3288 3176 3318 C 3157 3355 3094 3389 3048 3390 C 3022 3390 3020 3387 3020 3350 z" stroke-linecap="round" />
</g>
		<g transform="matrix(0.1 0 0 -0.1 96.249999995 18.524288284)" id="0w7e9eGBgLwYpNJAh79wN"  >
<path style="stroke: none; stroke-width: 1; stroke-dasharray: none; stroke-linecap: butt; stroke-dashoffset: 0; stroke-linejoin: miter; stroke-miterlimit: 4; fill: rgb(0,0,0); fill-rule: nonzero; opacity: 1;" vector-effect="non-scaling-stroke"  transform=" translate(-3669.5, -2739.5)" d="M 3552 3347 C 3554 3314 3559 3304 3575 3302 C 3586 3300 3604 3291 3614 3281 C 3632 3266 3633 3247 3626 2735 C 3620 2241 3621 2203 3637 2170 C 3656 2133 3725 2090 3767 2090 C 3787 2090 3790 2095 3790 2130 C 3790 2159 3786 2170 3775 2170 C 3766 2170 3748 2181 3735 2194 L 3711 2218 L 3717 2751 C 3722 3276 3721 3286 3701 3317 C 3678 3354 3642 3375 3587 3383 L 3549 3389 L 3552 3347 z" stroke-linecap="round" />
</g>
		<g transform="matrix(0.1 0 0 -0.1 -11.6722825799 -37.525711716)" id="VsJZrsf7Q56jtSxAa50fh"  >
<path style="stroke: none; stroke-width: 1; stroke-dasharray: none; stroke-linecap: butt; stroke-dashoffset: 0; stroke-linejoin: miter; stroke-miterlimit: 4; fill: rgb(0,0,0); fill-rule: nonzero; opacity: 1;" vector-effect="non-scaling-stroke"  transform=" translate(-2590.2771742508, -3300)" d="M 2535 3355 C 2484 3305 2518 3220 2589 3220 C 2636 3220 2670 3253 2670 3299 C 2670 3341 2632 3380 2590 3380 C 2571 3380 2550 3371 2535 3355 z" stroke-linecap="round" />
</g>
		<g transform="matrix(0.1 0 0 -0.1 139.5618673019 -36.025711716)" id="QdmjqUE5J2fFgyYKYQayt"  >
<path style="stroke: none; stroke-width: 1; stroke-dasharray: none; stroke-linecap: butt; stroke-dashoffset: 0; stroke-linejoin: miter; stroke-miterlimit: 4; fill: rgb(0,0,0); fill-rule: nonzero; opacity: 1;" vector-effect="non-scaling-stroke"  transform=" translate(-4102.6186730684, -3285)" d="M 4035 3355 C 4016 3337 4010 3320 4010 3285 C 4010 3224 4042 3190 4098 3190 C 4173 3190 4215 3254 4186 3325 C 4169 3365 4144 3380 4095 3380 C 4070 3380 4052 3372 4035 3355 z M 4150 3340 C 4198 3292 4168 3210 4103 3210 C 4061 3210 4030 3240 4030 3282 C 4030 3348 4106 3384 4150 3340 z" stroke-linecap="round" />
</g>
		<g transform="matrix(0.1 0 0 -0.1 139.7830825042 -35.525711716)" id="opOjKGsErnupLO7FGjgwm"  >
<path style="stroke: none; stroke-width: 1; stroke-dasharray: none; stroke-linecap: butt; stroke-dashoffset: 0; stroke-linejoin: miter; stroke-miterlimit: 4; fill: rgb(0,0,0); fill-rule: nonzero; opacity: 1;" vector-effect="non-scaling-stroke"  transform=" translate(-4104.8308250912, -3280)" d="M 4071 3278 C 4072 3243 4075 3227 4077 3243 C 4082 3277 4097 3278 4112 3245 C 4118 3231 4127 3220 4132 3220 C 4143 3220 4142 3227 4130 3250 C 4123 3264 4123 3275 4131 3288 C 4149 3317 4135 3340 4100 3340 L 4070 3340 L 4071 3278 z M 4118 3307 C 4120 3297 4115 3290 4106 3290 C 4088 3290 4077 3306 4085 3321 C 4094 3335 4114 3327 4118 3307 z" stroke-linecap="round" />
</g>
		<g transform="matrix(0.1 0 0 -0.1 -120.300000005 33.9514813258)" id="Q-rCquvKRr2NJjAw9nK94"  >
<path style="stroke: none; stroke-width: 1; stroke-dasharray: none; stroke-linecap: butt; stroke-dashoffset: 0; stroke-linejoin: miter; stroke-miterlimit: 4; fill: rgb(0,0,0); fill-rule: nonzero; opacity: 1;" vector-effect="non-scaling-stroke"  transform=" translate(-1504, -2585.2280695814)" d="M 1124 3051 C 1010 3023 914 2922 882 2795 C 877 2773 869 2615 866 2443 L 859 2132 L 900 2125 C 923 2121 944 2120 947 2123 C 949 2126 955 2272 960 2447 C 968 2795 972 2822 1030 2892 C 1097 2974 1229 2999 1326 2949 C 1381 2921 1433 2854 1450 2789 C 1457 2765 1461 2627 1460 2435 L 1460 2120 L 1503 2120 L 1547 2120 L 1553 2433 C 1558 2722 1560 2749 1580 2804 C 1593 2837 1618 2878 1640 2900 C 1730 2990 1887 2991 1972 2903 C 2056 2815 2065 2762 2056 2398 L 2050 2110 L 2094 2110 L 2138 2110 L 2145 2223 C 2149 2284 2150 2436 2148 2560 C 2145 2765 2143 2790 2122 2841 C 2093 2914 2037 2978 1969 3015 C 1919 3043 1908 3045 1810 3045 C 1716 3045 1700 3042 1655 3018 C 1607 2993 1559 2949 1528 2903 C 1514 2881 1513 2881 1482 2925 C 1406 3032 1261 3083 1124 3051 z" stroke-linecap="round" />
</g>
		<g transform="matrix(0.1 0 0 -0.1 -9.200000005 36.024288284)" id="HMdI8vqY8RMvP8QLE2xS3"  >
<path style="stroke: none; stroke-width: 1; stroke-dasharray: none; stroke-linecap: butt; stroke-dashoffset: 0; stroke-linejoin: miter; stroke-miterlimit: 4; fill: rgb(0,0,0); fill-rule: nonzero; opacity: 1;" vector-effect="non-scaling-stroke"  transform=" translate(-2615, -2564.5)" d="M 2537 2893 C 2533 2818 2530 2633 2530 2481 C 2530 2225 2531 2203 2550 2173 C 2572 2137 2607 2116 2663 2106 L 2700 2099 L 2700 2139 C 2700 2173 2696 2179 2671 2188 C 2617 2207 2616 2210 2624 2637 L 2630 3030 L 2587 3030 L 2543 3030 L 2537 2893 z" stroke-linecap="round" />
</g>
</g>
</g>
<g transform="matrix(1.5299409597 0 0 1.5688631467 395.4945595992 219.9588116398)" id="EU0Nw7Y_0GsOKcHEAvAMu"  >
<path style="stroke: rgb(80,231,238); stroke-width: 0; stroke-dasharray: none; stroke-linecap: butt; stroke-dashoffset: 0; stroke-linejoin: miter; stroke-miterlimit: 4; fill: rgb(0,0,0); fill-rule: nonzero; opacity: 1;" vector-effect="non-scaling-stroke"  transform=" translate(0, 0)" d="M 0 -5.90523 C 3.25969 -5.90523 5.90523 -3.2596900000000004 5.90523 0 C 5.90523 3.25969 3.2596900000000004 5.90523 0 5.90523 C -3.25969 5.90523 -5.90523 3.2596900000000004 -5.90523 0 C -5.90523 -3.25969 -3.2596900000000004 -5.90523 0 -5.90523 z" stroke-linecap="round" />
</g>
</svg>