<?xml version="1.0" standalone="no"?>
<!DOCTYPE svg PUBLIC "-//W3C//DTD SVG 20010904//EN"
 "http://www.w3.org/TR/2001/REC-SVG-20010904/DTD/svg10.dtd">
<svg version="1.0" xmlns="http://www.w3.org/2000/svg"
 width="300.000000pt" height="300.000000pt" viewBox="0 0 300.000000 300.000000"
 preserveAspectRatio="xMidYMid meet">
<metadata>
Created by potrace 1.10, written by Peter Selinger 2001-2011
</metadata>
<g transform="translate(0.000000,300.000000) scale(0.100000,-0.100000)"
fill="#000000" stroke="none">
<path d="M1120 2849 c-377 -17 -677 -77 -711 -142 -17 -32 -12 -137 7 -159 40
-44 288 -96 584 -122 194 -17 682 -20 900 -6 328 22 575 64 665 113 l40 22 -4
75 c-2 41 -8 81 -15 89 -18 23 -108 58 -187 75 -275 57 -772 78 -1279 55z
m805 -44 c270 -28 479 -67 510 -96 14 -13 27 -11 19 4 -5 8 -2 8 9 -2 15 -11
17 -11 17 2 0 8 -7 20 -15 27 -34 28 -3 19 49 -14 58 -37 69 -58 39 -75 -11
-7 -14 -14 -8 -18 17 -14 17 -44 -1 -64 -24 -27 -204 -75 -349 -94 -22 -3 -56
-7 -75 -10 -19 -3 -84 -7 -145 -10 -60 -3 -117 -8 -127 -11 -9 -3 -19 -1 -22
4 -3 6 -24 6 -48 1 -58 -11 -688 -3 -813 10 -196 20 -355 48 -445 78 -46 15
-84 48 -74 64 3 6 0 17 -8 26 -11 14 -10 15 12 9 14 -4 34 -11 45 -16 80 -35
427 -80 670 -88 391 -12 765 -5 967 18 194 23 388 64 388 84 0 2 -12 0 -27 -4
-72 -22 -120 -29 -390 -54 -54 -5 -37 11 18 18 28 4 49 9 46 12 -3 3 -38 1
-79 -5 -163 -23 -833 -44 -888 -28 -13 4 -244 25 -360 33 -39 2 -36 1 20 -11
l65 -14 -80 4 c-101 5 -301 40 -363 63 -68 26 -66 45 10 83 48 24 59 27 45 12
-26 -29 -22 -50 5 -27 19 15 20 16 9 2 -17 -22 -8 -23 23 -3 47 31 316 78 546
95 115 9 710 5 805 -5z m55 -235 c-14 -4 -43 -8 -65 -8 l-40 1 40 7 c22 4 51
7 65 8 l25 0 -25 -8z m-542 -17 c-32 -2 -86 -2 -120 0 -35 2 -9 3 57 3 66 0
94 -1 63 -3z"/>
<path d="M1155 2780 c-242 -18 -405 -52 -425 -89 -8 -15 -5 -22 16 -36 24 -16
32 -16 127 4 176 35 319 45 627 45 329 0 572 -21 681 -59 32 -12 40 -11 68 6
72 44 -20 84 -269 115 -138 18 -653 26 -825 14z m710 -24 c17 -3 59 -8 95 -11
107 -11 123 -13 171 -24 72 -16 99 -29 99 -47 0 -12 -6 -15 -22 -10 -95 29
-181 45 -293 55 -71 6 -152 14 -180 16 -139 13 -512 4 -663 -16 -40 -5 -76 -8
-80 -7 -14 4 -107 -14 -150 -28 -50 -17 -62 -17 -62 -4 0 5 15 16 34 24 35 15
291 54 386 59 82 4 630 -1 665 -7z"/>
<path d="M420 1598 c0 -502 -3 -976 -6 -1053 -6 -136 -6 -141 18 -175 51 -74
190 -147 370 -194 219 -57 553 -84 812 -66 488 33 820 119 927 237 33 36 36
46 43 120 6 76 2 113 -13 113 -3 0 -6 -18 -6 -40 -1 -76 -76 -139 -225 -189
-154 -53 -365 -90 -598 -106 l-82 -6 2 33 c2 41 -11 714 -17 893 -2 72 -8 369
-11 660 -4 292 -11 539 -15 550 -8 19 -4 -661 6 -905 2 -58 7 -316 10 -575 3
-259 8 -512 11 -562 l6 -93 -70 0 -70 0 -6 212 c-3 117 -11 508 -16 868 -12
820 -20 1070 -33 1070 -6 0 -7 -69 -3 -192 3 -106 8 -353 11 -548 6 -424 25
-1332 28 -1377 2 -18 -1 -34 -5 -35 -4 -2 -38 -2 -76 0 l-69 4 -6 456 c-16
1119 -29 1687 -39 1697 -9 9 -4 -656 7 -990 2 -60 7 -337 10 -615 3 -278 8
-515 11 -528 5 -23 4 -23 -73 -18 -184 14 -387 45 -508 76 -137 37 -279 111
-306 161 -7 14 -10 319 -9 1025 0 552 -2 1004 -5 1004 -3 0 -5 -411 -5 -912z
m127 -1237 c227 -113 692 -174 1148 -150 200 10 218 12 395 44 153 28 315 76
376 111 44 26 54 29 54 15 0 -18 -76 -65 -163 -101 -313 -127 -948 -176 -1379
-105 -206 33 -406 109 -485 185 -43 40 -26 40 54 1z"/>
<path d="M944 2270 c0 -74 1 -105 3 -67 2 37 2 97 0 135 -2 37 -3 6 -3 -68z"/>
<path d="M989 2383 c-2 -10 -2 -94 1 -188 l6 -170 2 188 c2 174 0 213 -9 170z"/>
<path d="M1090 2300 c-1 -58 -2 -108 -1 -112 1 -9 9 -530 16 -983 8 -576 17
-930 23 -935 2 -3 2 157 -2 355 -3 198 -9 657 -12 1020 -3 363 -10 683 -14
710 -7 43 -8 36 -10 -55z"/>
<path d="M1141 2365 c-5 -82 3 -872 13 -1415 12 -608 14 -681 21 -688 4 -4 5
137 1 313 -3 176 -9 610 -12 965 -5 561 -16 951 -23 825z"/>
<path d="M1188 2390 c-3 -8 -4 -56 -3 -105 2 -50 6 -360 10 -690 4 -330 9
-602 10 -605 2 -3 5 -164 6 -358 2 -194 7 -358 12 -365 5 -7 6 144 3 358 -3
204 -9 669 -12 1035 -6 623 -11 767 -26 730z"/>
<path d="M1045 2020 c8 -653 18 -1264 21 -1295 1 -16 3 -124 3 -239 1 -116 4
-206 9 -200 4 5 4 128 1 274 -4 146 -10 603 -14 1015 -4 413 -11 766 -16 785
-5 20 -6 -127 -4 -340z"/>
<path d="M1244 2008 c13 -934 19 -1287 21 -1338 2 -30 3 -135 4 -232 1 -118 5
-178 12 -178 7 0 8 62 5 197 -3 109 -8 421 -11 693 -9 896 -17 1240 -27 1240
-6 0 -7 -141 -4 -382z"/>
<path d="M1344 2063 c6 -301 18 -877 31 -1413 3 -118 5 -257 5 -308 0 -64 3
-91 11 -87 7 5 9 99 5 314 -4 168 -8 416 -11 551 -12 660 -17 897 -20 915 -2
11 -4 95 -4 188 -1 115 -4 167 -12 167 -8 0 -9 -91 -5 -327z"/>
<path d="M1404 1968 c4 -233 9 -493 11 -578 2 -85 7 -319 10 -520 6 -444 14
-620 27 -620 6 0 8 57 4 153 -6 164 -14 599 -21 1112 -7 552 -18 875 -28 875
-6 0 -7 -155 -3 -422z"/>
<path d="M1505 2243 c3 -82 10 -409 15 -728 18 -1090 23 -1265 33 -1265 6 0 7
67 3 183 -3 100 -10 540 -16 977 -11 836 -16 980 -32 980 -6 0 -7 -54 -3 -147z"/>
<path d="M1566 1965 c8 -872 26 -1700 36 -1710 7 -7 8 67 4 220 -3 127 -11
570 -17 985 -6 415 -15 796 -19 845 -6 57 -7 -69 -4 -340z"/>
<path d="M1665 2200 c6 -223 22 -949 31 -1464 3 -192 9 -378 14 -415 l7 -66 2
100 c0 55 -3 251 -9 435 -10 366 -16 640 -26 1205 -4 204 -11 377 -16 385 -6
9 -7 -59 -3 -180z"/>
<path d="M1726 1980 c3 -228 7 -435 9 -460 2 -25 7 -232 11 -460 3 -228 10
-422 15 -430 7 -11 8 -8 5 10 -3 14 -10 320 -17 680 -6 360 -15 750 -19 865
-6 157 -7 105 -4 -205z"/>
<path d="M904 2260 c0 -69 1 -97 3 -62 2 34 2 90 0 125 -2 34 -3 6 -3 -63z"/>
<path d="M1834 2250 c0 -63 1 -89 3 -57 2 31 2 83 0 115 -2 31 -3 5 -3 -58z"/>
<path d="M1883 2205 c0 -44 2 -61 4 -37 2 23 2 59 0 80 -2 20 -4 1 -4 -43z"/>
<path d="M1784 2025 c0 -99 2 -138 3 -87 2 51 2 132 0 180 -1 48 -3 6 -3 -93z"/>
<path d="M949 2028 c-2 -24 -2 -151 1 -283 l6 -240 2 283 c2 263 -1 340 -9
240z"/>
<path d="M903 1985 c0 -38 2 -53 4 -32 2 20 2 52 0 70 -2 17 -4 1 -4 -38z"/>
<path d="M997 1714 c3 -170 6 -313 8 -319 2 -5 4 127 4 295 0 168 -3 311 -8
319 -5 8 -7 -119 -4 -295z"/>
<path d="M1794 1610 c0 -63 1 -89 3 -57 2 31 2 83 0 115 -2 31 -3 5 -3 -58z"/>
<path d="M1794 1355 c0 -77 2 -107 3 -67 2 40 2 103 0 140 -2 37 -3 4 -3 -73z"/>
<path d="M1014 1130 c0 -113 2 -159 3 -102 2 56 2 148 0 205 -1 56 -3 10 -3
-103z"/>
<path d="M964 1075 c0 -66 1 -92 3 -57 2 34 2 88 0 120 -2 31 -3 3 -3 -63z"/>
<path d="M1798 1158 c-2 -13 -1 -108 3 -213 l6 -190 0 213 c0 116 -1 212 -2
212 -2 0 -4 -10 -7 -22z"/>
<path d="M1853 1005 c0 -44 2 -61 4 -37 2 23 2 59 0 80 -2 20 -4 1 -4 -43z"/>
<path d="M1024 600 c0 -96 2 -136 3 -87 2 48 2 126 0 175 -1 48 -3 8 -3 -88z"/>
<path d="M974 480 c0 -107 2 -151 3 -97 2 53 2 141 0 195 -1 53 -3 9 -3 -98z"/>
<path d="M1760 440 c0 -95 3 -170 7 -167 7 7 4 329 -3 336 -2 2 -4 -74 -4
-169z"/>
<path d="M1810 405 c0 -76 3 -135 7 -132 7 8 4 259 -3 266 -2 2 -4 -58 -4
-134z"/>
<path d="M1020 355 c0 -38 3 -65 7 -62 7 8 5 119 -3 126 -2 2 -4 -26 -4 -64z"/>
</g>
</svg>
