<svg viewBox="0 0 48 48" xmlns="http://www.w3.org/2000/svg"><path d="M24.024 0c.577 0 1.048.467 1.048 1.048 0 6.296 5.022 12.318 8.344 16.3.878 1.056 1.637 1.97 2.21 2.76.677.934 2.171 3.307 2.187 3.33 1.48 2.345 2.23 5.22 2.23 8.538 0 8.835-7.185 16.024-16.02 16.024C15.19 48 8 40.81 8 31.976c0-3.258.72-6.169 2.072-8.415.364-.601 1.803-2.729 2.476-3.634.557-.752 1.265-1.602 2.084-2.582 3.322-3.983 8.344-10.005 8.344-16.297C22.976.47 23.442 0 24.024 0Zm0 6.66c-1.724 4.773-5.224 8.968-7.779 12.03-.799.956-1.487 1.783-2.009 2.486-.632.855-2.028 2.919-2.365 3.473-1.158 1.917-1.771 4.452-1.771 7.327 0 7.676 6.244 13.924 13.924 13.924 7.675 0 13.92-6.248 13.924-13.928 0-2.914-.641-5.41-1.906-7.414-.412-.649-1.582-2.492-2.112-3.223-.53-.732-1.27-1.618-2.124-2.642-2.554-3.06-6.054-7.26-7.782-12.034Zm4.279 25.68a3.204 3.204 0 0 1 3.199 3.2 3.204 3.204 0 0 1-3.2 3.199 3.203 3.203 0 0 1-3.199-3.2 3.204 3.204 0 0 1 3.2-3.199Zm-1.179-6.663a1.02 1.02 0 0 1 1.432-.182c.446.344.53.984.185 1.431l-8.66 11.196a1.034 1.034 0 0 1-.81.395 1.02 1.02 0 0 1-.807-1.645Zm1.179 8.193a1.67 1.67 0 1 0 0 3.339 1.67 1.67 0 0 0 0-3.339Zm-8.942-9.407c1.764 0 3.2 1.435 3.2 3.199 0 1.764-1.436 3.2-3.2 3.2a3.203 3.203 0 0 1-3.199-3.2c0-1.764 1.436-3.2 3.2-3.2Zm.004 1.53a1.67 1.67 0 1 0 0 3.338 1.67 1.67 0 0 0 0-3.338Z" fill="#313132" fill-rule="evenodd"/></svg>