<?xml version="1.0" standalone="yes"?>
<!DOCTYPE svg PUBLIC "-//W3C//DTD SVG 20010904//EN" "http://www.w3.org/TR/2001/REC-SVG-20010904/DTD/svg10.dtd">
<svg xmlns="http://www.w3.org/2000/svg" cursor="crosshair" height="454.000000pt" style="zoom: 1;" width="310.000000pt" version="1.0" preserveAspectRatio="xMidYMid meet" viewBox="0 0 310.000000 454.000000" visibility="visible"><g transform="translate(0.000000,454.000000) scale(0.100000,-0.100000)" fill="#000000" stroke="none"><path d="M1133,4339 c-125,-21 -182,-56 -280,-175 c-47,-58 -140,-111 -243,-138 c-36,-10 -79,-22 -96,-27 c-17,-5 -38,-9 -48,-9 c-27,0 121,-74 246,-123 c264,-104 641,-189 1058,-237 c182,-21 293,-46 362,-81 c61,-31 124,-102 148,-166 c41,-110 45,-186 30,-612 c-7,-218 -14,-808 -16,-1312 c-2,-664 -6,-928 -14,-960 c-15,-55 -42,-109 -66,-131 c-35,-30 -168,-96 -224,-109 c-127,-30 -463,-4 -785,61 c-69,14 -288,81 -299,91 c-6,5 -16,9 -23,9 c-19,0 -198,90 -267,134 c-32,21 -82,59 -111,84 c-29,26 -4,1 54,-56 c65,-63 135,-120 181,-147 c146,-85 377,-167 607,-214 c196,-40 251,-46 424,-46 l175,0 l45,30 c24,16 70,42 102,57 c32,15 87,55 121,88 c35,33 67,60 72,60 c5,0 32,20 61,45 c28,25 59,45 68,45 c9,0 13,5 10,10 c-3,6 0,10 8,10 c21,0 70,57 64,74 c-8,20 28,39 124,65 c92,26 131,63 149,142 c32,150 65,447 92,829 c18,253 18,1303 0,1540 c-33,443 -92,675 -203,795 c-109,118 -384,241 -689,309 c-279,61 -675,92 -837,65 m337,-259 c22,-13 -9,-23 -48,-14 c-20,4 -40,7 -44,6 c-5,-1 -8,2 -8,8 c0,11 82,11 100,0 m-95,-40 c-3,-5 -15,-10 -26,-10 c-11,0 -17,5 -14,10 c3,6 15,10 26,10 c11,0 17,-4 14,-10 m255,-14 c0,-11 -19,-15 -25,-6 c-3,5 1,10 9,10 c9,0 16,-2 16,-4 m-77,-25 c5,-1 5,-5 2,-11 c-10,-16 -55,-12 -55,5 c0,10 7,14 23,11 c12,-3 26,-5 30,-5 m266,-7 c10,-9 -6,-12 -31,-7 c-16,3 -28,9 -28,14 c0,8 48,2 59,-7 m-86,-39 c1,-5 -10,-11 -25,-13 c-16,-2 -28,1 -28,7 c0,20 49,26 53,6 m-316,-1 c-3,-3 -12,-4 -19,-1 c-8,3 -5,6 6,6 c11,1 17,-2 13,-5 m40,-10 c-3,-3 -12,-4 -19,-1 c-8,3 -5,6 6,6 c11,1 17,-2 13,-5 m40,-10 c-3,-3 -12,-4 -19,-1 c-8,3 -5,6 6,6 c11,1 17,-2 13,-5 m88,-18 c28,-8 43,-15 35,-15 c-8,0 -37,6 -65,13 c-27,8 -43,15 -35,15 c8,0 38,-6 65,-13 m82,-22 c-3,-3 -12,-4 -19,-1 c-8,3 -5,6 6,6 c11,1 17,-2 13,-5 " visibility="visible"></path><path d="M765,1720 c3,-5 8,-10 11,-10 c2,0 4,5 4,10 c0,6 -5,10 -11,10 c-5,0 -7,-4 -4,-10 " visibility="hidden"></path><path d="M900,1680 c0,-5 5,-10 11,-10 c5,0 7,5 4,10 c-3,6 -8,10 -11,10 c-2,0 -4,-4 -4,-10 " visibility="hidden"></path><path d="M550,1660 c0,-5 5,-10 11,-10 c5,0 7,5 4,10 c-3,6 -8,10 -11,10 c-2,0 -4,-4 -4,-10 " visibility="hidden"></path><path d="M970,1660 c0,-5 5,-10 11,-10 c5,0 7,5 4,10 c-3,6 -8,10 -11,10 c-2,0 -4,-4 -4,-10 " visibility="hidden"></path><path d="M770 1640 c0 -5 5 -10 11 -10 5 0 7 5 4 10 -3 6 -8 10 -11 10 -2 0 -4 -4 -4 -10z" visibility="hidden"></path><path d="M1040 1640 c0 -5 5 -10 11 -10 5 0 7 5 4 10 -3 6 -8 10 -11 10 -2 0 -4 -4 -4 -10z" visibility="hidden"></path><path d="M605 1630 c3 -5 8 -10 11 -10 2 0 4 5 4 10 0 6 -5 10 -11 10 -5 0 -7 -4 -4 -10z" visibility="hidden"></path><path d="M830 1620 c0 -5 5 -10 10 -10 6 0 10 5 10 10 0 6 -4 10 -10 10 -5 0 -10 -4 -10 -10z" visibility="hidden"></path><path d="M1115 1620 c3 -5 8 -10 11 -10 2 0 4 5 4 10 0 6 -5 10 -11 10 -5 0 -7 -4 -4 -10z" visibility="hidden"></path><path d="M655 1610 c3 -5 8 -10 11 -10 2 0 4 5 4 10 0 6 -5 10 -11 10 -5 0 -7 -4 -4 -10z" visibility="hidden"></path><path d="M515 1600 c3 -5 8 -10 11 -10 2 0 4 5 4 10 0 6 -5 10 -11 10 -5 0 -7 -4 -4 -10z" visibility="hidden"></path><path d="M900 1600 c0 -5 5 -10 10 -10 6 0 10 5 10 10 0 6 -4 10 -10 10 -5 0 -10 -4 -10 -10z" visibility="hidden"></path><path d="M710 1590 c0 -5 5 -10 11 -10 5 0 7 5 4 10 -3 6 -8 10 -11 10 -2 0 -4 -4 -4 -10z" visibility="hidden"></path><path d="M555 1580 c3 -5 8 -10 11 -10 2 0 4 5 4 10 0 6 -5 10 -11 10 -5 0 -7 -4 -4 -10z" visibility="hidden"></path><path d="M970 1580 c0 -5 5 -10 10 -10 6 0 10 5 10 10 0 6 -4 10 -10 10 -5 0 -10 -4 -10 -10z" visibility="hidden"></path><path d="M770,1571 c0,-5 5,-13 10,-16 c6,-3 10,-2 10,4 c0,5 -4,13 -10,16 c-5,3 -10,2 -10,-4 " visibility="hidden"></path><path d="M600 1561 c0 -6 5 -13 10 -16 6 -3 10 1 10 9 0 9 -4 16 -10 16 -5 0 -10 -4 -10 -9z" visibility="hidden"></path><path d="M1045,1560 c3,-5 11,-10 16,-10 c6,0 7,5 4,10 c-3,6 -11,10 -16,10 c-6,0 -7,-4 -4,-10 " visibility="hidden"></path><path d="M475 1550 c3 -5 8 -10 11 -10 2 0 4 5 4 10 0 6 -5 10 -11 10 -5 0 -7 -4 -4 -10z" visibility="hidden"></path><path d="M832 1548 c2 -6 10 -14 16 -16 7 -2 10 2 6 12 -7 18 -28 22 -22 4z" visibility="hidden"></path><path d="M652 1538 c2 -6 10 -14 16 -16 7 -2 10 2 6 12 -7 18 -28 22 -22 4z" visibility="hidden"></path><path d="M1115 1540 c3 -5 10 -10 16 -10 5 0 9 5 9 10 0 6 -7 10 -16 10 -8 0 -12 -4 -9 -10z" visibility="hidden"></path><path d="M515 1530 c3 -5 8 -10 11 -10 2 0 4 5 4 10 0 6 -5 10 -11 10 -5 0 -7 -4 -4 -10z" visibility="hidden"></path><path d="M900 1532 c0 -12 19 -26 26 -19 2 2 -2 10 -11 17 -9 8 -15 8 -15 2z" visibility="hidden"></path><path d="M1190 1530 c0 -5 5 -10 11 -10 5 0 7 5 4 10 -3 6 -8 10 -11 10 -2 0 -4 -4 -4 -10z" visibility="hidden"></path><path d="M710 1521 c0 -5 5 -13 10 -16 6 -3 10 -2 10 4 0 5 -4 13 -10 16 -5 3 -10 2 -10 -4z" visibility="hidden"></path><path d="M1260 1520 c0 -5 5 -10 11 -10 5 0 7 5 4 10 -3 6 -8 10 -11 10 -2 0 -4 -4 -4 -10z" visibility="hidden"></path><path d="M560 1511 c0 -5 5 -13 10 -16 6 -3 10 -2 10 4 0 5 -4 13 -10 16 -5 3 -10 2 -10 -4z" visibility="hidden"></path><path d="M972 1508 c5 -15 28 -23 28 -10 0 5 -7 13 -16 16 -10 4 -14 1 -12 -6z" visibility="hidden"></path><path d="M606 1485 c4 -8 10 -15 15 -15 4 0 6 7 3 15 -4 8 -10 15 -15 15 -4 0 -6 -7 -3 -15z" visibility="hidden"></path><path d="M772,1491 c4,-13 18,-16 19,-4 c0,4 -5,9 -11,12 c-7,2 -11,-2 -8,-8 " visibility="hidden"></path><path d="M1046 1492 c-3 -6 -1 -14 5 -17 15 -10 25 3 12 16 -7 7 -13 7 -17 1z" visibility="hidden"></path><path d="M1530 1480 c0 -5 5 -10 11 -10 5 0 7 5 4 10 -3 6 -8 10 -11 10 -2 0 -4 -4 -4 -10z" visibility="hidden"></path><path d="M830 1476 c0 -2 7 -9 15 -16 12 -10 15 -10 15 4 0 9 -7 16 -15 16 -8 0 -15 -2 -15 -4z" visibility="hidden"></path></g></svg>