<?xml version="1.0" standalone="yes"?><svg xmlns="http://www.w3.org/2000/svg" xmlns:xlink="http://www.w3.org/1999/xlink" version="1.1" x="0px" y="0px" viewBox="0 0 100 125" enable-background="new 0 0 100 100" xml:space="preserve" style="zoom: 1;"><path d="M60,63.6V22.8c0-5.4-4.4-9.8-9.8-9.8h-0.4c-5.4,0-9.8,4.4-9.8,9.8v40.8c-2.4,2.6-3.8,6-3.8,9.6C36.2,80.8,42.4,87,50,87 s13.8-6.2,13.8-13.8C63.8,69.6,62.4,66.2,60,63.6z M50,83c-5.4,0-9.8-4.4-9.8-9.8c0-2.7,1.2-5.4,3.2-7.2l0.6-0.6V22.8 c0-3.2,2.6-5.8,5.8-5.8h0.4c3.2,0,5.8,2.6,5.8,5.8v42.5l0.6,0.6c2,1.9,3.2,4.5,3.2,7.2C59.8,78.6,55.4,83,50,83z"></path><path d="M55,66.7V44H45v22.7c-1.9,1.5-3.2,3.8-3.2,6.4c0,4.5,3.7,8.2,8.2,8.2s8.2-3.7,8.2-8.2C58.2,70.5,56.9,68.2,55,66.7z"></path></svg>