<svg viewBox="0 0 48 48" xmlns="http://www.w3.org/2000/svg"><path d="M23.7 0c3.3 0 5.988 2.688 5.988 5.988v22.443A10.688 10.688 0 0 1 34.4 37.3c0 2.858-1.113 5.546-3.133 7.566A10.631 10.631 0 0 1 23.7 48c-2.86 0-5.547-1.112-7.567-3.133A10.631 10.631 0 0 1 13 37.3a10.688 10.688 0 0 1 4.712-8.87V5.989A5.997 5.997 0 0 1 23.7 0Zm0 2.214a3.75 3.75 0 0 0-2.666 1.108 3.75 3.75 0 0 0-1.109 2.666V29.04c0 .39-.207.751-.543.952a8.566 8.566 0 0 0-3.023 3.041 8.473 8.473 0 0 0-1.149 4.263 8.43 8.43 0 0 0 2.487 6.003 8.43 8.43 0 0 0 6.003 2.487 8.43 8.43 0 0 0 6.003-2.487 8.43 8.43 0 0 0 2.487-6.003 8.463 8.463 0 0 0-1.149-4.263 8.537 8.537 0 0 0-3.023-3.041 1.111 1.111 0 0 1-.544-.952V5.988a3.75 3.75 0 0 0-1.108-2.666A3.75 3.75 0 0 0 23.7 2.214Zm1.685 15.083V31.16a6.442 6.442 0 0 1 4.763 6.225 6.447 6.447 0 1 1-8.129-6.225V17.297h3.366Z" fill="#313132" fill-rule="evenodd"/></svg>