<?xml version="1.0" standalone="no"?>
<!DOCTYPE svg PUBLIC "-//W3C//DTD SVG 20010904//EN"
 "http://www.w3.org/TR/2001/REC-SVG-20010904/DTD/svg10.dtd">
<svg version="1.0" xmlns="http://www.w3.org/2000/svg"
 width="960.000000pt" height="960.000000pt" viewBox="0 0 960.000000 960.000000"
 preserveAspectRatio="xMidYMid meet">

<g transform="translate(0.000000,960.000000) scale(0.100000,-0.100000)"
fill="#000000" stroke="none">
<path d="M8652 6073 c-22 -38 -62 -108 -89 -158 -28 -49 -102 -182 -165 -295
-63 -113 -130 -232 -148 -265 -18 -33 -39 -69 -45 -80 -7 -11 -26 -45 -42 -75
-17 -30 -40 -73 -53 -95 -13 -22 -34 -60 -48 -85 -13 -25 -28 -49 -32 -55 -4
-5 -24 -41 -45 -80 -42 -78 -140 -252 -221 -393 -30 -51 -54 -96 -54 -99 0 -3
-15 -30 -34 -61 -29 -48 -200 -353 -296 -526 -78 -140 -210 -256 -395 -346
-267 -130 -479 -175 -825 -174 -247 0 -268 3 -715 99 -165 35 -741 158 -1280
274 -539 115 -1011 216 -1050 225 -283 60 -1122 239 -1175 251 -100 22 -378
82 -445 95 -159 31 -320 86 -445 150 -104 55 -161 96 -242 176 l-66 66 4 -34
c35 -302 48 -614 41 -998 l-5 -334 25 -51 c40 -80 181 -212 288 -270 204 -112
133 -93 1615 -420 388 -85 743 -164 790 -175 47 -11 189 -43 315 -71 264 -58
254 -56 885 -195 261 -57 502 -111 535 -119 201 -47 546 -118 640 -132 156
-22 467 -13 625 17 215 41 432 127 575 228 104 73 186 170 261 307 39 72 83
150 97 175 13 25 54 99 89 165 132 245 338 624 361 666 14 24 67 123 119 219
53 96 106 195 120 220 14 25 86 158 161 295 74 138 170 313 212 390 41 77 95
178 118 224 l42 85 1 425 c1 400 9 583 40 844 4 31 4 57 1 57 -3 0 -24 -30
-45 -67z"/>
</g>
</svg>
